<svg xmlns="http://www.w3.org/2000/svg" viewBox="0 0 24 24" width="24" height="24">
  <!-- Car/mobile mapping vehicle silhouette -->
  <path d="M 18.92 6.01 C 18.72 5.42 18.16 5 17.5 5 h -11 c -0.66 0 -1.21 0.42 -1.42 1.01 L 3 12 v 8 c 0 0.55 0.45 1 1 1 h 1 c 0.55 0 1 -0.45 1 -1 v -1 h 12 v 1 c 0 0.55 0.45 1 1 1 h 1 c 0.55 0 1 -0.45 1 -1 v -8 z" fill="#4A90E2" stroke="#FFFFFF" stroke-width="1.5"/>
  <circle cx="7.5" cy="15" r="1.5" fill="#333333"/>
  <circle cx="16.5" cy="15" r="1.5" fill="#333333"/>
  <path d="M 6.5 9 h 3 l 1 -3 h 3 l 1 3 h 3" fill="none" stroke="#FFFFFF" stroke-width="1"/>
</svg>

